<?xml version="1.0" standalone="no"?>
<!DOCTYPE svg PUBLIC "-//W3C//DTD SVG 20010904//EN"
 "http://www.w3.org/TR/2001/REC-SVG-20010904/DTD/svg10.dtd">
<svg version="1.0" xmlns="http://www.w3.org/2000/svg"
 width="1080.000000pt" height="1080.000000pt" viewBox="0 0 1080.000000 1080.000000"
 preserveAspectRatio="xMidYMid meet">
<metadata>
Created by potrace 1.14, written by Peter Selinger 2001-2017
</metadata>
<g transform="translate(0.000000,1080.000000) scale(0.100000,-0.100000)"
fill="#000000" stroke="none">
<path d="M5172 10345 c-38 -63 -1391 -2505 -1441 -2600 -21 -39 -208 -378
-417 -755 l-379 -684 -5 2041 -5 2041 -1342 -2422 -1343 -2422 0 -2497 0
-2497 2740 0 c1507 0 2740 2 2740 3 0 2 -329 598 -732 1323 -402 725 -735
1330 -741 1344 -9 23 42 119 479 907 269 485 492 879 496 875 9 -9 73 -124
980 -1762 352 -635 831 -1500 1066 -1922 l426 -768 1499 0 1499 0 -20 33 c-21
34 -1758 3170 -1882 3397 -41 74 -524 948 -1074 1942 -551 994 -1181 2133
-1400 2530 -993 1796 -1076 1944 -1095 1944 -13 0 -30 -19 -49 -51z"/>
</g>
</svg>
